<svg width="48" height="48" viewBox="0 0 48 48" fill="none" xmlns="http://www.w3.org/2000/svg">
<g id="icon / import download">
<path id="icon" fill-rule="evenodd" clip-rule="evenodd" d="M28.7721 26.0332C29.1626 25.6426 29.1626 25.0095 28.7721 24.6189C28.3815 24.2284 27.7484 24.2284 27.3578 24.6189L24.9563 27.0205L24.9563 13C24.9563 12.4477 24.5086 12 23.9563 12C23.404 12 22.9563 12.4477 22.9563 13L22.9563 27.0205L20.5547 24.6189C20.1642 24.2284 19.531 24.2284 19.1405 24.6189C18.75 25.0095 18.75 25.6426 19.1405 26.0332L23.2492 30.1418C23.4367 30.3294 23.691 30.4347 23.9563 30.4347C24.2215 30.4347 24.4758 30.3294 24.6634 30.1418L28.7721 26.0332ZM35.913 26.696C35.913 26.1437 35.4653 25.696 34.913 25.696C34.3607 25.696 33.913 26.1437 33.913 26.696V33.9134H14L14 26.696C14 26.1437 13.5523 25.696 13 25.696C12.4477 25.696 12 26.1437 12 26.696V34.9134C12 35.4657 12.4477 35.9134 13 35.9134L34.913 35.9134C35.4653 35.9134 35.913 35.4657 35.913 34.9134V26.696Z" fill="#222222"/>
</g>
</svg>
